<svg t="1706846274364" class="icon" viewBox="0 0 1024 1024" version="1.1" xmlns="http://www.w3.org/2000/svg" p-id="11181" width="200" height="200"><path d="M235.343768 306.030323a21 21 0 1 0 6.728758-41.457494 21 21 0 1 0-6.728758 41.457494Z" fill="#B76BF9" p-id="11182"></path><path d="M86.3 379m-21 0a21 21 0 1 0 42 0 21 21 0 1 0-42 0Z" fill="#B76BF9" p-id="11183"></path><path d="M186.4 394.2m-21 0a21 21 0 1 0 42 0 21 21 0 1 0-42 0Z" p-id="11184"></path><path d="M780.1 260c0-25.2 4.8-49.3 13.3-71.5-16.7-4-34-6.3-51.9-6.3-123.1 0-223 99.8-223 223 0 123.1 99.8 223 223 223 104.2 0 191.4-71.5 215.9-168.1-99.9-12.2-177.3-97-177.3-200.1z" fill="#8A61FF" p-id="11185"></path><path d="M661.9 456.1c-7.1 0-14 0.5-20.8 1.3-9.3-89.6-85.3-159.5-177.7-159.5S295 367.8 285.7 457.4c-6.8-0.8-13.8-1.3-20.8-1.3-98.7 0-178.6 79.7-178.6 178s80 178 178.6 178h397c98.7 0 178.6-79.7 178.6-178s-79.9-178-178.6-178z m0 321.8H265c-79.6 0-144.3-64.5-144.3-143.7S185.5 490.5 265 490.5c5.1 0 10.6 0.4 16.9 1.1l15 1.7-0.1 0.3c33.7 7.8 63.8 26.1 86 52.2 5.6 6.6 15.4 7.5 22.5 2.6 8.3-5.9 9.7-17.7 3.1-25.4-23.6-27.4-54.3-47.6-88.9-58.5l0.4-3.4c7.6-73.4 69.3-128.8 143.6-128.8S599.4 387.6 607 461l1.8 17.3c1 9.5 9.5 16.3 19 15.2l17.3-2c6.3-0.7 11.8-1.1 16.9-1.1 79.6 0 144.3 64.5 144.3 143.7 0 79.3-64.8 143.8-144.4 143.8z" p-id="11186"></path></svg>